<?xml version="1.0" encoding="utf-8"?>
<!-- Generator: Adobe Illustrator 27.0.0, SVG Export Plug-In . SVG Version: 6.00 Build 0)  -->
<svg version="1.1" id="Layer_1" xmlns="http://www.w3.org/2000/svg" xmlns:xlink="http://www.w3.org/1999/xlink" x="0px" y="0px"
	 viewBox="0 0 92.7 123.4" style="enable-background:new 0 0 92.7 123.4;" xml:space="preserve">
<style type="text/css">
	.st0{fill:#4146FF;stroke:#FFFFFF;stroke-miterlimit:10;}
</style>
<g>
	<path class="st0" d="M75,15.7C64.9,8.1,51.9,4.4,32,4.4c-7.1,0-14,0.3-20.3,0.8C5.1,5.9,0,11.5,0,18.1l0,0c0,2.6,2.1,4.7,4.7,4.7
		h26.2c0.2,0,0.5-0.1,0.7-0.1c0.9,0,1.8-0.1,2.8-0.1c20.4,0,33.2,11.5,33.1,33.3c0,24.7-13.2,36.7-34.1,36.9l-0.4,0H4.7
		C2.1,92.9,0,95,0,97.6V98c0,6.8,5.3,12.5,12.1,12.9c4.2,0.2,9.1,0.4,14.8,0.4c20.5,0,37.4-4.4,48.4-13.6
		c10.1-8.5,17.4-22.4,17.4-42.5C92.7,36.7,85.9,23.9,75,15.7z"/>
	<path class="st0" d="M21.2,42.2c0-0.2,0.1-0.5,0.2-0.7l25-36.6C48.1,2.5,50.8,1,53.8,1h8c8.5,0,13.3,9.8,8.1,16.5L47,47.1
		c-2.6,3.4-2.9,8-0.7,11.6l29.2,48.1c4.1,6.8-0.8,15.6-8.8,15.6h-8.5c-3.2,0-6.2-1.7-7.8-4.5L21.3,63.9c-0.1-0.2-0.1-0.4-0.1-0.6
		L21.2,42.2z"/>
	<path class="st0" d="M14.5,90.1H3.9c-2.1,0-3.9-1.7-3.9-3.9V29.6c0-2.1,1.7-3.9,3.9-3.9h10.6c2.1,0,3.9,1.7,3.9,3.9v56.7
		C18.4,88.4,16.7,90.1,14.5,90.1z"/>
</g>
</svg>
